P3
# Created By Abdul Rehman Gulshan
10 7
255
0 0 0 4 0 0 7 0 0 11 0 0 15 0 0 18 0 0 22 0 0 26 0 0 30 0 0 33 0 0 
37 0 0 41 0 0 44 0 0 48 0 0 52 0 0 55 0 0 59 0 0 63 0 0 67 0 0 70 0 0 
74 0 0 78 0 0 81 0 0 85 0 0 89 0 0 92 0 0 96 0 0 100 0 0 103 0 0 107 0 0 
111 0 0 115 0 0 118 0 0 122 0 0 126 0 0 129 0 0 133 0 0 137 0 0 140 0 0 144 0 0 
148 0 0 152 0 0 155 0 0 159 0 0 163 0 0 166 0 0 170 0 0 174 0 0 177 0 0 181 0 0 
185 0 0 188 0 0 192 0 0 196 0 0 200 0 0 203 0 0 207 0 0 211 0 0 214 0 0 218 0 0 
222 0 0 225 0 0 229 0 0 233 0 0 237 0 0 240 0 0 244 0 0 248 0 0 251 0 0 255 0 0 
